<svg width="39" height="39" viewBox="0 0 39 39" fill="none" xmlns="http://www.w3.org/2000/svg">
<path d="M26 13H13V26H26V13Z" stroke="#ffffff" stroke-width="4" stroke-linecap="round" stroke-linejoin="round"/>
<path d="M8.125 35.75C10.8062 35.75 13 33.5562 13 30.875V26H8.125C5.44375 26 3.25 28.1938 3.25 30.875C3.25 33.5562 5.44375 35.75 8.125 35.75Z" stroke="#ffffff" stroke-width="4" stroke-linecap="round" stroke-linejoin="round"/>
<path d="M8.125 13H13V8.125C13 5.44375 10.8062 3.25 8.125 3.25C5.44375 3.25 3.25 5.44375 3.25 8.125C3.25 10.8062 5.44375 13 8.125 13Z" stroke="#ffffff" stroke-width="4" stroke-linecap="round" stroke-linejoin="round"/>
<path d="M26 13H30.875C33.5562 13 35.75 10.8062 35.75 8.125C35.75 5.44375 33.5562 3.25 30.875 3.25C28.1938 3.25 26 5.44375 26 8.125V13Z" stroke="#ffffff" stroke-width="4" stroke-linecap="round" stroke-linejoin="round"/>
<path d="M30.875 35.75C33.5562 35.75 35.75 33.5562 35.75 30.875C35.75 28.1938 33.5562 26 30.875 26H26V30.875C26 33.5562 28.1938 35.75 30.875 35.75Z" stroke="#ffffff" stroke-width="4" stroke-linecap="round" stroke-linejoin="round"/>
</svg>
