<svg width="39" height="39" fill="none" xmlns="http://www.w3.org/2000/svg"><path d="M26 13H13v13h13V13ZM8.125 35.75A4.89 4.89 0 0 0 13 30.875V26H8.125a4.89 4.89 0 0 0-4.875 4.875 4.89 4.89 0 0 0 4.875 4.875ZM8.125 13H13V8.125A4.89 4.89 0 0 0 8.125 3.25 4.89 4.89 0 0 0 3.25 8.125 4.89 4.89 0 0 0 8.125 13ZM26 13h4.875a4.89 4.89 0 0 0 4.875-4.875 4.89 4.89 0 0 0-4.875-4.875A4.89 4.89 0 0 0 26 8.125V13ZM30.875 35.75a4.89 4.89 0 0 0 4.875-4.875A4.89 4.89 0 0 0 30.875 26H26v4.875a4.89 4.89 0 0 0 4.875 4.875Z" stroke="#fff" stroke-width="4" stroke-linecap="round" stroke-linejoin="round"/></svg>