<svg width="237" height="39" fill="none" xmlns="http://www.w3.org/2000/svg"><path d="M26 13H13v13h13V13ZM8.125 35.75A4.89 4.89 0 0 0 13 30.875V26H8.125a4.89 4.89 0 0 0-4.875 4.875 4.89 4.89 0 0 0 4.875 4.875ZM8.125 13H13V8.125A4.89 4.89 0 0 0 8.125 3.25 4.89 4.89 0 0 0 3.25 8.125 4.89 4.89 0 0 0 8.125 13ZM26 13h4.875a4.89 4.89 0 0 0 4.875-4.875 4.89 4.89 0 0 0-4.875-4.875A4.89 4.89 0 0 0 26 8.125V13ZM30.875 35.75a4.89 4.89 0 0 0 4.875-4.875A4.89 4.89 0 0 0 30.875 26H26v4.875a4.89 4.89 0 0 0 4.875 4.875Z" stroke="#444" stroke-width="4" stroke-linecap="round" stroke-linejoin="round"/><path d="M60.433 32.51c-1.768 0-3.355-.272-4.76-.816-1.406-.544-2.596-1.337-3.57-2.38-.975-1.065-1.723-2.357-2.244-3.876-.522-1.519-.782-3.264-.782-5.236s.294-3.717.884-5.236c.612-1.519 1.439-2.8 2.482-3.842a10.258 10.258 0 0 1 3.672-2.414c1.405-.544 2.912-.816 4.522-.816.974 0 1.858.08 2.652.238.793.136 1.484.295 2.074.476.589.181 1.076.374 1.462.578.385.204.657.351.816.442l-1.258 3.502c-.544-.34-1.326-.657-2.346-.952-.998-.317-2.086-.476-3.264-.476a7.45 7.45 0 0 0-2.856.544 6.156 6.156 0 0 0-2.312 1.564c-.635.703-1.134 1.587-1.496 2.652-.363 1.065-.544 2.3-.544 3.706 0 1.247.136 2.391.408 3.434.294 1.043.736 1.95 1.326 2.72a6.187 6.187 0 0 0 2.244 1.768c.906.408 1.994.612 3.264.612 1.518 0 2.754-.147 3.706-.442.952-.317 1.688-.612 2.21-.884l1.156 3.502c-.272.181-.646.363-1.122.544a17.13 17.13 0 0 1-1.632.544c-.635.159-1.349.283-2.142.374-.794.113-1.644.17-2.55.17Zm14.114-12.308c0 1.292.158 2.47.476 3.536.317 1.043.77 1.938 1.36 2.686a6.497 6.497 0 0 0 2.21 1.7c.861.408 1.836.612 2.924.612 1.065 0 2.028-.204 2.89-.612a6.167 6.167 0 0 0 2.176-1.7c.612-.748 1.076-1.643 1.394-2.686.317-1.065.476-2.244.476-3.536 0-1.292-.159-2.46-.476-3.502-.318-1.065-.782-1.96-1.394-2.686a6.01 6.01 0 0 0-2.176-1.734c-.862-.408-1.825-.612-2.89-.612-1.088 0-2.063.204-2.924.612a6.32 6.32 0 0 0-2.21 1.734c-.59.748-1.043 1.643-1.36 2.686-.318 1.043-.476 2.21-.476 3.502Zm18.394 0c0 2.017-.306 3.797-.918 5.338-.59 1.541-1.406 2.833-2.448 3.876a10.044 10.044 0 0 1-3.604 2.312c-1.383.521-2.856.782-4.42.782s-3.049-.26-4.454-.782a10.379 10.379 0 0 1-3.638-2.312c-1.02-1.043-1.836-2.335-2.448-3.876-.612-1.541-.918-3.32-.918-5.338 0-2.017.306-3.785.918-5.304.612-1.541 1.439-2.833 2.482-3.876a10.486 10.486 0 0 1 3.672-2.346 12.327 12.327 0 0 1 4.386-.782c1.541 0 3.003.26 4.386.782a9.83 9.83 0 0 1 3.604 2.346c1.042 1.043 1.87 2.335 2.482 3.876.612 1.519.918 3.287.918 5.304Zm8.983 8.262c.25.023.578.045.986.068h1.666c2.879 0 5.021-.725 6.426-2.176 1.428-1.473 2.142-3.525 2.142-6.154 0-2.675-.691-4.726-2.074-6.154-1.382-1.428-3.524-2.142-6.426-2.142-1.269 0-2.176.034-2.72.102v16.456Zm15.708-8.262c0 2.04-.317 3.82-.952 5.338-.634 1.496-1.541 2.754-2.72 3.774-1.156.997-2.561 1.745-4.216 2.244-1.632.476-3.445.714-5.44.714-.952 0-2.028-.045-3.23-.136a20.56 20.56 0 0 1-3.434-.476V8.778a20.641 20.641 0 0 1 3.468-.476 59.547 59.547 0 0 1 3.264-.102c1.972 0 3.774.238 5.406.714 1.632.453 3.026 1.179 4.182 2.176 1.179.975 2.086 2.221 2.72 3.74.635 1.496.952 3.287.952 5.372ZM122.31 32V8.438h15.13v3.638h-10.846v5.814h9.656v3.57h-9.656v6.902h11.662V32H122.31Zm26.586-23.8c3.423 0 6.041.623 7.854 1.87 1.836 1.247 2.754 3.196 2.754 5.848 0 1.383-.249 2.573-.748 3.57a6.167 6.167 0 0 1-2.108 2.414c-.929.612-2.063 1.065-3.4 1.36-1.337.295-2.867.442-4.59.442h-2.142V32h-4.284V8.778a20.02 20.02 0 0 1 3.298-.442 45.848 45.848 0 0 1 3.366-.136Zm.306 3.706c-1.088 0-1.983.034-2.686.102v8.024h2.074c2.063 0 3.649-.283 4.76-.85 1.111-.59 1.666-1.689 1.666-3.298 0-.77-.147-1.417-.442-1.938a3.18 3.18 0 0 0-1.224-1.224c-.521-.295-1.145-.499-1.87-.612a11.995 11.995 0 0 0-2.278-.204ZM169.91 8.2c3.4 0 5.995.623 7.786 1.87 1.813 1.247 2.72 3.15 2.72 5.712 0 3.196-1.576 5.36-4.726 6.494.43.521.918 1.156 1.462 1.904a50.788 50.788 0 0 1 1.666 2.448 45.17 45.17 0 0 1 1.632 2.686c.521.907.986 1.802 1.394 2.686h-4.794a45.442 45.442 0 0 0-1.394-2.448 49.522 49.522 0 0 0-1.53-2.414 37.858 37.858 0 0 0-1.496-2.21 45.747 45.747 0 0 0-1.394-1.87c-.318.023-.59.034-.816.034H167.7V32h-4.284V8.778a21.5 21.5 0 0 1 3.332-.442 41.64 41.64 0 0 1 3.162-.136Zm.306 3.706c-.907 0-1.746.034-2.516.102v7.616h1.87c1.042 0 1.96-.057 2.754-.17.793-.113 1.45-.317 1.972-.612.544-.295.952-.691 1.224-1.19s.408-1.133.408-1.904c0-.725-.136-1.337-.408-1.836a3.007 3.007 0 0 0-1.19-1.19c-.499-.295-1.1-.499-1.802-.612a12.196 12.196 0 0 0-2.312-.204Zm14.948-3.468h4.284V32h-4.284V8.438Zm14.212 20.026c.249.023.578.045.986.068h1.666c2.878 0 5.02-.725 6.426-2.176 1.428-1.473 2.142-3.525 2.142-6.154 0-2.675-.692-4.726-2.074-6.154-1.383-1.428-3.525-2.142-6.426-2.142-1.27 0-2.176.034-2.72.102v16.456Zm15.708-8.262c0 2.04-.318 3.82-.952 5.338-.635 1.496-1.542 2.754-2.72 3.774-1.156.997-2.562 1.745-4.216 2.244-1.632.476-3.446.714-5.44.714-.952 0-2.029-.045-3.23-.136a20.55 20.55 0 0 1-3.434-.476V8.778a20.64 20.64 0 0 1 3.468-.476 59.547 59.547 0 0 1 3.264-.102c1.972 0 3.774.238 5.406.714 1.632.453 3.026 1.179 4.182 2.176 1.178.975 2.085 2.221 2.72 3.74.634 1.496.952 3.287.952 5.372ZM219.761 32V8.438h15.13v3.638h-10.846v5.814h9.656v3.57h-9.656v6.902h11.662V32h-15.946Z" fill="#444"/></svg>